<?xml version="1.0" standalone="no"?>
<!DOCTYPE svg PUBLIC "-//W3C//DTD SVG 20010904//EN"
 "http://www.w3.org/TR/2001/REC-SVG-20010904/DTD/svg10.dtd">
<svg version="1.0" xmlns="http://www.w3.org/2000/svg"
 width="2800.000000pt" height="2411.000000pt" viewBox="0 0 2800.000000 2411.000000"
 preserveAspectRatio="xMidYMid meet">

<g transform="translate(0.000000,2411.000000) scale(0.100000,-0.100000)"
fill="#000000" stroke="none">
<path d="M10753 22259 l77 -54 -187 -6 c-291 -10 -534 -70 -776 -190 -95 -48
-291 -169 -284 -176 2 -2 48 4 103 12 134 20 149 19 83 -9 -238 -97 -440 -275
-565 -494 -24 -42 -44 -80 -44 -84 0 -4 42 13 93 37 87 42 265 106 290 105 7
-1 -10 -13 -38 -27 -69 -36 -184 -155 -217 -224 -17 -35 -37 -109 -52 -190
-49 -266 -51 -306 -47 -922 1 -318 0 -604 -4 -636 l-7 -59 -41 19 c-79 35
-163 15 -224 -54 -41 -47 -47 -83 -39 -236 23 -463 176 -805 445 -1001 l61
-44 -8 -56 c-4 -30 -7 -143 -6 -250 0 -224 20 -354 79 -535 64 -195 121 -285
252 -397 126 -108 352 -238 550 -319 46 -18 81 -34 79 -37 -6 -5 -229 53 -311
81 -104 36 -240 94 -328 139 l-78 41 -32 -39 c-133 -162 -303 -291 -543 -412
-134 -67 -203 -96 -379 -158 l-150 -52 1 -69 c1 -150 79 -291 263 -474 230
-229 549 -438 1081 -707 135 -68 234 -121 220 -117 -14 4 -86 30 -160 57 -451
168 -817 379 -1115 645 -173 155 -348 370 -360 443 -12 72 -54 199 -92 275
-199 399 -666 650 -1413 759 -274 40 -447 50 -897 50 -243 1 -444 -1 -447 -4
-3 -4 5 -33 19 -65 34 -85 63 -241 74 -396 6 -73 8 -135 7 -137 -2 -1 -17 43
-35 98 -163 513 -602 902 -1155 1022 -148 32 -447 32 -591 0 -55 -13 -158 -32
-230 -43 -496 -77 -791 -252 -957 -563 -42 -80 -45 -79 -22 8 37 143 113 275
216 378 78 78 153 128 258 173 164 70 306 168 436 302 114 116 202 244 292
423 151 300 247 659 297 1109 15 142 16 145 61 219 135 222 409 525 791 874
327 298 399 348 559 384 85 18 252 15 311 -6 30 -11 31 -13 31 -70 0 -41 7
-74 22 -105 23 -48 90 -112 127 -121 15 -4 23 -14 23 -28 0 -37 49 -123 85
-151 69 -52 170 -70 238 -41 27 11 45 11 112 -1 175 -31 372 1 515 84 87 51
203 171 268 276 59 94 137 278 172 402 19 66 21 94 16 160 -24 287 -161 454
-413 501 -56 10 -337 23 -983 44 -498 16 -918 27 -935 25 -16 -2 -68 -9 -114
-15 -105 -14 -233 -51 -326 -94 -59 -27 -376 -277 -1774 -1395 -936 -749
-1739 -1388 -1784 -1420 -141 -101 -268 -247 -393 -452 -130 -215 -305 -609
-432 -979 -28 -80 -73 -192 -101 -250 -123 -257 -146 -425 -69 -508 14 -15 52
-67 86 -117 180 -267 449 -498 742 -639 118 -57 185 -75 350 -95 171 -22 498
-8 689 29 30 5 57 8 59 5 3 -3 3 -5 1 -5 -2 0 -50 -16 -107 -35 -212 -71 -478
-101 -686 -76 -54 6 -100 10 -102 8 -12 -12 265 -351 422 -518 852 -903 1958
-1446 3188 -1564 211 -20 268 -19 373 6 111 27 295 30 397 5 206 -49 405 -178
516 -333 l35 -48 -60 51 c-125 108 -262 176 -418 210 -105 23 -273 21 -377 -4
-150 -36 -137 -21 -145 -167 -16 -268 36 -602 141 -922 115 -347 306 -738 560
-1140 74 -119 99 -148 240 -285 286 -278 523 -580 786 -998 137 -218 357 -608
480 -850 87 -170 157 -421 197 -705 40 -282 46 -403 46 -935 0 -514 -8 -684
-49 -1150 -12 -125 -11 -152 1 -195 60 -205 295 -491 763 -930 l95 -89 -100
69 c-132 91 -376 275 -550 414 l-140 112 -7 -123 c-13 -230 -28 -432 -50 -656
l-22 -223 -100 -102 c-182 -186 -313 -403 -389 -642 -54 -169 -70 -282 -72
-495 l-2 -185 -50 -195 c-114 -439 -163 -836 -163 -1310 0 -387 15 -553 34
-370 22 217 106 591 186 830 99 294 259 643 416 908 42 70 77 128 79 130 1 1
141 -15 311 -38 2625 -342 4775 -310 6384 95 235 59 670 192 670 204 -1 3 -37
33 -82 66 -285 209 -601 574 -888 1023 -64 102 -79 136 -141 320 -128 380
-304 797 -498 1179 -276 545 -626 1729 -880 2974 l-40 197 15 143 c68 656 233
1239 514 1814 151 309 175 347 251 396 255 164 478 411 587 650 96 208 152
459 152 682 0 124 21 208 98 390 229 539 740 1057 1517 1538 l120 74 -85 7
c-632 52 -1580 459 -2763 1187 -81 50 -149 91 -150 91 -1 0 0 -118 1 -262 2
-145 1 -261 -2 -257 -10 10 -64 301 -82 444 -13 101 -18 212 -19 395 l0 255
37 156 c73 302 112 590 124 922 l7 187 33 21 c18 11 60 50 94 86 151 165 258
501 305 956 15 145 15 149 -6 196 -39 91 -111 131 -251 139 -66 4 -88 8 -88
19 0 38 36 178 70 274 82 230 100 656 45 1032 -12 83 -23 114 -66 199 -68 131
-147 251 -241 363 -78 94 -232 245 -308 304 -25 19 -68 70 -97 115 -99 153
-246 303 -410 416 -107 75 -105 76 -78 -23 l23 -85 -111 54 c-235 112 -534
191 -767 201 l-125 5 78 -53z m-588 -6066 c50 -296 240 -633 532 -943 41 -44
73 -83 70 -86 -8 -9 -184 63 -256 105 -223 131 -390 335 -501 616 -39 99 -103
316 -94 324 6 7 108 17 191 19 l52 2 6 -37z m1463 -1213 c155 -77 245 -102
392 -107 147 -6 223 8 328 61 59 30 99 40 278 70 373 62 477 71 819 71 345 0
426 -9 605 -68 l95 -32 -270 -6 c-506 -11 -918 -93 -1365 -271 -180 -72 -173
-62 -76 -112 180 -92 340 -216 458 -353 36 -43 65 -79 64 -80 -1 -2 -47 17
-102 41 -210 93 -411 151 -649 188 -114 18 -185 22 -382 22 -134 1 -243 2
-243 3 0 1 93 54 207 119 l208 118 -72 12 c-92 15 -134 29 -213 70 -80 42
-159 105 -216 175 -44 54 -97 151 -110 203 -7 28 -7 28 70 -24 43 -28 121 -73
174 -100z m-5218 -690 c47 -410 190 -765 403 -996 134 -146 197 -265 296 -556
401 -1184 794 -1957 1205 -2373 214 -216 419 -330 641 -356 84 -10 101 -8 240
20 369 74 653 65 879 -29 92 -39 250 -141 236 -153 -3 -2 -41 0 -85 6 -122 15
-624 15 -720 -1 -214 -36 -362 -95 -458 -182 -99 -90 -137 -184 -137 -334 1
-79 19 -209 32 -222 3 -2 31 1 64 8 32 7 136 12 229 12 194 0 319 -20 490 -78
97 -33 248 -96 243 -102 -2 -1 -32 4 -68 11 -168 36 -377 28 -562 -21 -123
-32 -325 -131 -375 -183 -50 -52 -99 -135 -131 -219 -33 -89 -42 -272 -18
-376 21 -89 82 -204 151 -288 45 -54 71 -75 128 -103 228 -112 613 -95 1312
60 47 10 -94 -68 -216 -120 -355 -150 -738 -215 -1102 -185 l-147 12 -44 -26
c-24 -14 -66 -47 -92 -73 -122 -123 -126 -265 -11 -426 100 -140 225 -224 397
-268 110 -27 411 -37 586 -19 146 14 366 51 539 89 72 16 131 28 133 26 5 -5
-122 -82 -203 -123 -372 -186 -808 -232 -1200 -128 -49 14 -98 28 -107 31 -16
7 -18 -1 -18 -87 0 -236 57 -483 164 -711 24 -54 41 -97 37 -97 -5 0 -56 49
-113 109 -276 285 -427 636 -445 1037 l-6 130 -70 44 c-170 105 -315 285 -378
469 -27 77 -23 84 11 25 76 -134 244 -209 385 -172 64 17 64 20 34 245 l-22
172 -60 68 c-92 104 -232 296 -304 416 -57 95 -193 363 -193 381 0 4 24 -20
53 -52 76 -87 395 -378 404 -369 2 2 -8 51 -22 108 -40 171 -56 324 -54 520
l3 177 -74 60 c-139 111 -271 261 -368 419 -58 94 -135 233 -129 233 2 0 32
-33 65 -73 71 -86 192 -191 311 -271 89 -59 293 -167 397 -209 l61 -24 7 91
c3 50 15 147 26 216 l21 125 -178 180 c-544 550 -975 1269 -1358 2265 -74 193
-209 588 -275 805 -41 134 -45 142 -110 220 -189 224 -307 467 -365 749 -44
209 -44 493 -2 726 l11 65 8 -115 c4 -63 12 -158 18 -210z m4314 -62 c70 -82
129 -148 131 -148 2 0 34 23 70 50 37 28 83 59 103 69 56 29 160 58 232 66
l65 7 -85 -53 c-213 -132 -316 -317 -296 -533 6 -67 29 -172 40 -183 2 -3 25
9 51 27 64 44 164 88 254 111 87 23 264 28 346 10 66 -15 195 -61 195 -70 0
-4 -37 -16 -82 -25 -201 -43 -454 -145 -588 -236 -89 -61 -176 -159 -216 -244
-30 -62 -37 -91 -41 -160 -3 -46 -2 -109 2 -141 7 -55 7 -57 33 -51 15 4 65 9
112 12 225 16 419 -110 501 -327 20 -52 40 -169 29 -169 -3 0 -28 23 -55 51
-156 158 -333 240 -489 226 -102 -10 -137 -29 -195 -107 -162 -217 -412 -341
-686 -339 -60 1 -121 4 -135 8 -21 6 -14 9 40 20 36 8 110 29 166 47 281 90
462 238 554 452 28 65 24 119 -21 260 -110 343 -336 615 -653 783 l-70 37 49
7 c26 4 87 5 135 2 173 -11 335 -89 457 -220 l62 -66 11 47 c20 85 24 356 6
458 -27 158 -83 311 -166 454 -39 67 -30 58 134 -132z m151 -2743 c51 -570 85
-884 101 -932 89 -265 359 -455 782 -549 45 -11 82 -21 82 -24 0 -3 -57 -32
-127 -65 -289 -133 -497 -212 -646 -244 l-82 -18 -12 -64 c-27 -144 -37 -340
-25 -474 7 -70 17 -134 23 -141 27 -33 82 -39 351 -39 l268 0 -68 -43 c-85
-55 -244 -136 -347 -177 l-80 -31 -14 -50 c-16 -58 -21 -511 -7 -688 8 -108 8
-108 47 -147 82 -82 210 -122 371 -117 94 3 97 2 76 -14 -32 -24 -166 -76
-253 -98 -40 -10 -115 -22 -168 -26 l-94 -7 -13 -81 c-7 -44 -15 -205 -17
-357 l-5 -276 54 -30 c82 -47 192 -82 298 -96 l95 -13 -85 -19 c-64 -15 -123
-20 -241 -20 l-156 0 -44 -130 -43 -130 -45 143 -45 142 -46 0 c-59 0 -153 17
-202 37 -38 15 -51 33 -24 33 23 0 168 50 238 82 66 30 67 32 74 75 7 46 -3
525 -12 554 -2 9 -28 32 -58 53 -88 61 -156 164 -172 263 l-6 41 57 -29 c66
-33 151 -39 209 -15 31 13 34 18 40 70 11 84 8 293 -4 377 -23 147 -73 323
-139 480 l-32 77 -57 6 c-143 17 -267 85 -358 194 -30 36 -54 68 -54 71 0 4
55 6 122 6 145 0 209 17 303 80 l60 40 5 299 5 300 -29 15 c-77 42 -294 176
-408 252 l-126 84 92 0 c80 0 99 4 148 28 31 15 73 46 93 69 48 52 100 164
119 253 8 39 26 113 39 165 43 163 97 540 143 983 9 92 18 166 20 165 1 -2 14
-134 29 -293z m1288 -1570 c81 0 147 -1 147 -2 0 0 -9 -53 -20 -116 -53 -313
-46 -630 20 -932 94 -422 294 -1232 405 -1639 122 -447 246 -830 308 -951 18
-36 19 -52 13 -165 -19 -372 -136 -657 -353 -860 -88 -83 -245 -185 -339 -220
-23 -9 -22 -5 17 48 270 370 422 708 459 1019 l11 92 -74 123 c-40 68 -98 168
-127 223 -29 55 -54 101 -55 102 0 2 -53 -5 -116 -14 -164 -23 -508 -23 -609
0 -83 19 -179 62 -224 99 l-29 25 199 0 c165 0 217 4 304 22 178 37 327 124
392 229 19 31 21 49 21 186 1 83 -5 180 -12 216 -14 72 -47 188 -59 207 -5 9
-30 4 -92 -19 -99 -35 -233 -48 -319 -29 -102 22 -200 83 -286 180 l-40 45 55
-31 c153 -86 327 -85 504 4 103 51 156 86 156 102 0 15 -208 934 -216 956 -3
8 -37 14 -97 18 -131 8 -270 56 -372 127 l-30 21 40 -8 c22 -4 96 -8 165 -8
114 0 130 2 174 25 l50 25 -1 415 -2 415 -58 12 c-73 15 -137 38 -166 59 -21
15 -18 15 43 7 36 -4 131 -8 213 -8z m-4021 -5132 c26 -29 79 -82 118 -117 63
-59 81 -68 164 -95 438 -141 1063 -231 1951 -283 274 -16 1926 -17 2252 -1
l221 11 84 43 c117 61 255 168 413 321 l135 131 -31 -89 c-54 -154 -177 -372
-286 -510 l-41 -51 -183 -22 c-494 -58 -861 -75 -1464 -68 -258 3 -535 11
-615 16 -639 46 -1138 105 -1740 207 -320 54 -856 161 -889 177 -54 27 -158
254 -179 393 l-10 59 27 -35 c14 -19 47 -58 73 -87z"/>
<path d="M18844 20431 c-59 -14 -124 -53 -159 -94 -36 -42 -75 -131 -75 -171
0 -12 -3 -25 -6 -28 -3 -3 -42 11 -88 32 -348 161 -725 189 -1079 79 -426
-131 -755 -412 -942 -802 -149 -310 -255 -881 -255 -1374 0 -240 15 -413 47
-548 20 -85 26 -136 26 -225 1 -128 -17 -198 -73 -288 -91 -148 -50 -306 127
-494 75 -78 93 -103 93 -127 0 -100 79 -393 147 -540 92 -203 265 -402 457
-529 61 -40 117 -84 126 -98 85 -129 310 -129 638 1 188 75 393 184 767 409
42 25 -69 -77 -190 -176 -292 -238 -669 -431 -1038 -532 l-119 -33 -20 -44
c-11 -24 -44 -102 -73 -174 -238 -584 -252 -971 -42 -1188 69 -70 114 -95 213
-116 595 -129 1276 70 1998 583 214 152 426 327 690 570 l87 79 167 -6 c92 -4
200 -13 241 -22 41 -8 76 -13 78 -11 7 7 -106 105 -145 125 -95 48 -261 65
-395 41 -63 -12 -89 -3 -199 71 -230 156 -338 398 -325 729 5 122 37 334 56
368 5 9 26 -4 76 -45 146 -123 265 -326 310 -528 18 -82 18 -39 0 64 -38 219
-113 419 -227 613 l-40 67 22 108 c29 146 25 139 58 117 192 -125 320 -366
323 -608 1 -74 3 -84 9 -51 17 84 22 243 11 355 -27 263 -118 527 -258 743
l-44 68 46 51 c107 119 174 280 183 436 l5 92 76 0 c91 -1 145 -12 219 -47 98
-46 182 -139 229 -253 28 -69 29 -53 2 36 -49 160 -151 308 -281 407 -79 60
-192 118 -267 138 l-47 12 0 306 c1 168 -3 359 -7 424 -10 140 -12 138 109 78
171 -86 271 -235 291 -433 l7 -73 8 65 c17 142 -29 341 -110 477 -90 151 -242
281 -395 338 -37 14 -46 22 -41 34 108 264 117 544 27 796 -59 164 -149 309
-263 425 -160 164 -321 251 -560 306 -108 24 -152 28 -206 15z"/>
<path d="M16365 14799 c-550 -93 -587 -101 -705 -145 -362 -135 -644 -311
-904 -564 -188 -183 -327 -365 -454 -595 -104 -189 -252 -567 -252 -643 0 -45
-36 -226 -64 -318 -113 -376 -333 -731 -676 -1087 -117 -122 -158 -184 -264
-396 -207 -413 -383 -1002 -500 -1667 l-23 -131 18 -167 c109 -992 412 -1969
924 -2981 96 -189 142 -293 169 -380 81 -259 293 -737 441 -995 20 -36 50
-101 66 -145 64 -175 174 -331 373 -530 150 -150 285 -262 475 -396 l118 -83
-34 -100 c-159 -468 -195 -1005 -103 -1541 22 -124 54 -265 60 -265 4 0 10 35
14 78 12 131 66 429 107 595 110 438 269 747 499 974 l83 82 56 -28 c107 -53
234 -90 406 -118 135 -22 573 -24 765 -5 286 29 343 41 778 162 813 226 2050
556 2057 548 2 -2 -23 -26 -57 -53 -121 -100 -253 -270 -335 -435 -49 -97 -54
-141 -22 -206 24 -51 69 -82 131 -90 70 -10 110 9 158 72 129 171 294 328 469
445 269 181 543 270 908 294 l101 7 22 -48 c138 -306 272 -850 380 -1544 58
-377 51 -359 88 -205 64 263 85 438 85 710 0 210 -10 335 -44 525 -39 217
-112 461 -199 662 -22 50 -38 93 -37 94 1 1 47 20 102 44 303 127 563 337 662
534 86 172 260 369 441 501 204 148 509 314 772 420 365 147 761 387 1270 768
l235 176 202 238 c238 282 680 820 988 1205 138 172 233 283 255 296 52 29
136 108 170 157 91 133 92 335 2 550 -452 1078 -972 1835 -1678 2440 -171 146
-184 154 -281 175 -215 44 -415 153 -634 346 -83 73 -89 81 -89 117 0 59 -37
226 -71 324 -166 469 -573 861 -1254 1208 -99 50 -247 120 -330 155 -82 35
-403 189 -713 343 -309 153 -569 277 -576 274 -8 -3 -61 -77 -119 -164 -622
-938 -827 -1779 -611 -2517 33 -112 91 -261 143 -364 l39 -78 -86 4 c-156 7
-336 -40 -476 -126 -63 -38 -202 -164 -239 -217 -18 -26 -14 -24 28 14 71 61
168 116 255 143 97 29 264 31 355 4 102 -30 175 -67 180 -90 42 -210 91 -360
165 -509 86 -170 183 -309 308 -439 l75 -77 -49 -58 c-27 -32 -86 -102 -131
-155 l-83 -96 -107 48 c-384 171 -782 273 -1208 309 -130 12 -464 12 -585 2
l-75 -7 70 -7 c293 -30 377 -41 505 -67 430 -86 823 -241 1188 -468 l77 -48
-2 -155 c-1 -85 -5 -195 -8 -246 l-7 -91 -41 14 c-81 29 -487 144 -683 193
-1032 259 -2268 438 -3664 530 -168 12 -342 23 -387 27 l-83 6 -112 125 c-320
354 -507 694 -580 1056 -20 96 -23 143 -23 322 0 179 4 227 23 325 29 140 97
347 157 476 l45 96 -36 63 c-70 126 -125 321 -123 439 l0 51 14 -52 c31 -114
111 -225 213 -295 37 -25 46 -28 57 -17 20 21 1705 2527 1705 2535 0 10 -91
-4 -635 -97z m5240 -3133 c359 -238 771 -599 1192 -1045 158 -167 177 -191
217 -275 171 -353 567 -731 1246 -1187 81 -55 151 -99 157 -99 6 0 57 63 113
140 56 77 103 140 106 140 11 0 -120 -290 -208 -460 -326 -628 -795 -1248
-1497 -1979 -181 -189 -213 -217 -410 -364 -411 -306 -734 -561 -893 -705
l-67 -60 -175 5 c-211 7 -337 -6 -527 -53 l-136 -34 -129 14 c-359 40 -656 26
-1002 -49 -102 -22 -140 -37 -299 -116 -421 -210 -691 -407 -765 -558 -22 -45
-25 -78 -17 -182 4 -54 -52 -162 -103 -199 -41 -30 -111 -47 -147 -35 -18 5
-21 14 -21 59 0 127 38 230 147 394 63 95 188 227 278 293 33 24 100 79 148
121 252 221 542 346 927 400 117 16 498 16 629 0 52 -6 97 -9 100 -6 4 3 7
118 9 254 5 349 -25 590 -108 870 -32 106 -106 299 -120 314 -5 5 -84 -67
-185 -170 -97 -98 -161 -159 -142 -134 170 221 296 488 327 695 38 254 194
777 346 1163 332 840 774 1541 1363 2166 l122 130 -48 50 c-26 28 -172 177
-323 330 -281 285 -286 292 -105 172z m-6805 -1163 c57 -107 193 -309 282
-420 109 -135 308 -352 426 -463 l103 -97 -22 -104 c-57 -262 -6 -907 81
-1024 138 -186 207 -378 217 -605 7 -168 -12 -279 -88 -505 -130 -390 -181
-667 -181 -990 0 -188 10 -297 42 -454 11 -52 19 -95 18 -96 -11 -10 -301 -97
-368 -111 -124 -26 -287 -24 -362 5 -70 27 -88 48 -191 220 -324 539 -507
1151 -568 1901 -6 80 -12 334 -13 565 -2 343 -6 440 -20 528 -36 225 -93 399
-177 539 l-47 78 54 24 c150 69 280 197 427 421 84 128 197 340 278 523 35 78
65 142 66 142 0 0 20 -35 43 -77z m2330 -1034 c212 -21 394 -40 405 -42 24 -4
-173 -14 -470 -24 l-220 -8 -33 -49 c-50 -75 -67 -146 -54 -228 17 -115 77
-202 167 -245 33 -16 42 -15 152 3 92 15 166 19 333 19 230 -1 329 -13 492
-60 l83 -25 -65 7 c-113 11 -301 6 -405 -12 -197 -34 -458 -141 -547 -226 -77
-73 -135 -252 -124 -384 5 -67 41 -205 52 -205 3 0 34 25 67 56 113 102 254
154 415 154 111 0 190 -18 289 -67 113 -55 113 -63 -4 -57 -161 9 -309 -28
-458 -114 -79 -46 -212 -180 -260 -262 -37 -64 -37 -66 -31 -145 5 -74 9 -85
52 -148 225 -329 629 -391 1169 -181 l20 7 -20 -23 c-38 -43 -150 -122 -230
-160 -128 -62 -228 -84 -375 -83 -142 1 -230 20 -358 77 -110 49 -171 65 -304
78 -88 9 -152 9 -260 1 -165 -14 -347 -41 -366 -56 -22 -17 -90 -160 -122
-255 -16 -48 -36 -127 -45 -176 -17 -102 -20 -316 -4 -400 6 -32 8 -60 6 -62
-8 -8 -73 166 -97 256 -32 122 -39 362 -15 497 20 111 64 252 105 333 l28 55
243 1 c228 0 340 11 353 33 2 3 0 59 -6 123 l-11 116 -41 12 c-172 51 -359
211 -459 392 -31 55 -93 226 -85 234 2 1 23 -23 48 -54 97 -122 254 -217 408
-247 46 -10 85 -15 87 -13 5 4 -81 617 -86 622 -2 2 -33 18 -69 36 -112 56
-227 136 -316 222 -79 76 -189 206 -181 215 2 2 33 -16 69 -39 137 -91 338
-168 477 -184 l61 -7 0 373 0 373 78 -7 c42 -4 250 -25 462 -47z m1692 -195
l277 -7 -25 -49 c-71 -140 -133 -339 -152 -491 l-9 -67 23 14 c12 8 140 86
285 173 145 87 277 168 294 178 l30 20 -22 -30 c-102 -143 -309 -337 -484
-453 l-117 -77 -6 -50 c-15 -116 -25 -268 -26 -382 0 -104 2 -123 15 -123 43
0 421 212 823 461 218 135 222 137 183 90 -48 -57 -275 -279 -388 -378 -417
-367 -836 -595 -1155 -629 l-63 -6 40 33 c235 192 355 421 372 709 5 89 -10
306 -22 318 -2 2 -31 -15 -66 -38 -136 -93 -353 -169 -524 -184 l-70 -6 35 17
c19 9 76 36 125 59 294 141 515 375 620 659 12 33 25 72 29 87 l6 26 -200 67
c-110 37 -200 69 -200 72 0 3 21 2 48 -1 26 -3 172 -8 324 -12z m-317 -2237
c89 -195 128 -373 128 -587 1 -242 -48 -448 -152 -647 -27 -51 -48 -93 -45
-93 2 0 68 32 147 71 317 159 681 401 989 656 89 74 91 75 51 28 -56 -67 -458
-464 -558 -551 -223 -194 -433 -348 -525 -384 -315 -123 -559 -350 -712 -664
l-49 -101 6 60 c27 244 140 477 321 664 76 80 90 100 133 199 258 583 329
1085 205 1448 -14 41 28 -27 61 -99z m-2382 -1430 c12 -192 75 -460 159 -675
50 -126 190 -410 248 -501 l41 -64 155 7 c236 10 612 49 1113 116 123 17 226
29 228 27 7 -7 -227 -104 -365 -151 -154 -53 -330 -97 -487 -123 -120 -19
-518 -26 -647 -10 l-66 8 -124 122 c-262 259 -479 557 -627 861 -78 160 -77
161 27 53 90 -92 216 -205 304 -271 l37 -27 -14 51 c-28 105 -38 227 -32 392
5 160 23 302 37 293 4 -2 10 -51 13 -108z"/>
<path d="M14765 10049 c-13 -80 -66 -233 -110 -315 -81 -155 -184 -263 -316
-334 -32 -17 -59 -35 -59 -39 0 -5 15 -42 34 -82 74 -163 113 -326 104 -433
-3 -31 -3 -56 -1 -56 3 0 565 701 626 781 l28 37 -86 117 c-100 137 -158 232
-190 311 l-23 56 -7 -43z"/>
<path d="M15489 7780 c-20 -36 -67 -121 -104 -190 -206 -377 -390 -653 -518
-778 -53 -53 -54 -54 -46 -95 10 -51 69 -452 69 -468 0 -16 105 -5 200 22 143
39 270 125 332 225 21 33 26 55 31 149 6 125 35 278 75 398 27 81 27 84 25
342 0 156 -6 300 -15 360 l-13 100 -36 -65z"/>
</g>
</svg>
