<?xml version="1.0" standalone="no"?>
<!DOCTYPE svg PUBLIC "-//W3C//DTD SVG 20010904//EN"
 "http://www.w3.org/TR/2001/REC-SVG-20010904/DTD/svg10.dtd">
<svg version="1.0" xmlns="http://www.w3.org/2000/svg"
 width="1000.000000pt" height="766.000000pt" viewBox="0 0 1000.000000 766.000000"
 preserveAspectRatio="xMidYMid meet">

<g transform="translate(0.000000,766.000000) scale(0.100000,-0.100000)"
fill="#000000" stroke="none">
<path d="M6400 7645 c-248 -56 -432 -249 -500 -524 -17 -67 -21 -110 -19 -216
l2 -132 -53 -104 c-28 -57 -80 -150 -114 -207 -63 -107 -205 -306 -212 -299
-3 2 5 25 16 51 31 73 29 78 -32 70 -91 -11 -200 -34 -283 -60 -99 -31 -277
-116 -370 -177 -77 -50 -78 -46 25 -66 l45 -9 -42 -1 c-142 -4 -323 -52 -440
-117 -120 -68 -228 -167 -251 -232 -40 -112 -56 -227 -56 -399 l-1 -172 -26
119 c-14 66 -29 123 -33 127 -23 24 -178 -238 -294 -497 -37 -82 -161 -399
-177 -453 -36 -116 -56 -195 -66 -252 -5 -33 -15 -91 -21 -130 -15 -86 -14
-365 1 -460 6 -38 13 -90 16 -115 3 -25 10 -54 15 -65 5 -11 11 -45 14 -75 2
-30 9 -82 15 -115 21 -133 52 -305 71 -400 11 -55 25 -125 31 -155 19 -99 16
-97 58 -57 50 47 133 107 217 155 l71 41 1 236 c1 239 2 252 29 315 36 85 47
124 64 232 7 46 9 106 5 145 -4 38 -11 106 -16 153 -21 203 -29 299 -29 360
l0 65 20 -45 c21 -46 55 -90 72 -90 12 0 81 56 237 194 l134 119 18 69 c15 61
58 151 78 163 4 2 -3 -22 -17 -55 -13 -33 -27 -93 -31 -134 l-7 -73 -193 -177
c-188 -173 -193 -179 -186 -210 6 -27 30 -89 55 -138 5 -10 9 -27 9 -37 0 -11
5 -23 10 -26 6 -3 10 -13 10 -21 0 -8 9 -34 20 -59 11 -25 29 -65 40 -90 11
-25 20 -47 20 -50 0 -11 153 -316 161 -321 5 -3 9 -11 9 -18 0 -7 18 -46 40
-86 22 -40 40 -75 40 -77 0 -2 -16 8 -35 23 -40 30 -55 25 -75 -29 -7 -18 -21
-51 -31 -74 -11 -24 -19 -45 -19 -48 0 -2 -11 -28 -24 -57 -53 -118 -66 -151
-61 -156 2 -3 30 -15 60 -28 90 -36 163 -85 234 -155 188 -189 256 -465 177
-714 -24 -75 -58 -146 -40 -85 31 109 41 257 25 371 -17 110 -64 256 -99 305
-93 128 -244 226 -398 259 -192 41 -394 -15 -539 -147 -57 -52 -74 -77 -120
-172 -65 -133 -83 -200 -92 -326 -11 -171 37 -331 148 -500 104 -159 209 -243
354 -286 78 -22 221 -23 294 0 30 9 58 16 63 16 26 0 -7 -228 -55 -382 -18
-57 -27 -74 -44 -76 -20 -3 -20 -3 4 79 32 112 47 209 39 253 l-7 36 -100 0
c-108 0 -224 20 -304 52 -36 15 -87 23 -180 28 -225 14 -357 71 -505 220 -131
130 -203 287 -216 469 -4 52 -14 100 -25 123 -24 47 -49 152 -48 198 1 19 3
26 6 15 7 -35 25 -79 47 -115 l20 -34 17 84 c9 47 26 110 38 141 60 158 207
308 364 371 28 12 55 24 59 27 4 3 3 24 -3 46 -5 22 -14 67 -20 100 -6 33 -15
83 -20 110 -20 102 -30 172 -39 260 -10 92 -23 188 -35 260 l-7 40 -141 0
c-137 1 -146 2 -258 38 -103 34 -168 65 -303 147 l-38 23 17 -34 c38 -73 115
-158 188 -207 21 -14 75 -42 120 -63 l82 -39 -75 0 c-41 0 -173 -3 -292 -7
-204 -6 -218 -5 -218 11 0 20 24 57 81 126 l37 45 -77 -3 c-126 -5 -236 49
-314 155 -103 140 -82 371 41 458 192 136 402 321 402 356 0 10 5 21 10 24 6
3 10 15 10 25 0 11 9 35 20 55 11 20 20 42 20 49 0 7 11 25 26 41 14 15 43 56
65 91 23 35 43 64 45 64 2 0 -3 -17 -12 -37 -42 -101 -54 -136 -54 -168 0 -19
-4 -37 -10 -40 -16 -10 -12 -139 5 -171 25 -50 97 -114 160 -144 82 -39 145
-46 225 -26 138 36 216 109 284 267 11 24 36 70 58 101 21 31 38 60 38 64 0 3
20 35 45 70 25 34 45 66 45 71 0 4 10 20 23 35 12 14 30 36 40 47 9 12 17 26
17 31 0 6 5 10 10 10 6 0 10 4 10 9 0 5 16 26 36 47 64 70 64 76 -14 158 -81
85 -119 139 -166 232 -34 69 -82 211 -74 219 2 3 19 -33 37 -79 53 -136 170
-298 244 -337 20 -11 20 -11 13 127 -3 77 -8 195 -11 264 l-4 125 13 -75 c7
-41 21 -128 31 -193 10 -65 20 -115 23 -112 3 3 9 69 13 148 8 161 -4 475 -25
617 -7 52 -13 96 -12 97 1 2 24 -52 50 -120 26 -67 53 -133 61 -147 l14 -25 1
32 c0 74 -48 388 -81 523 -46 187 -133 392 -212 495 -113 150 -283 213 -461
172 l-49 -12 56 -44 c31 -24 57 -45 57 -47 0 -1 -29 10 -64 27 -145 68 -318
95 -505 79 -129 -12 -222 -51 -307 -132 -104 -98 -158 -264 -134 -410 11 -67
16 -77 59 -119 61 -59 111 -73 234 -66 50 2 101 8 112 12 15 5 16 4 5 -3 -30
-19 -119 -33 -215 -35 l-99 -2 -9 -40 c-11 -49 -2 -173 15 -212 7 -15 29 -56
50 -90 58 -97 64 -126 43 -228 -25 -128 -7 -185 61 -185 39 0 64 -22 64 -58 1
-43 40 -109 115 -192 96 -105 147 -140 208 -140 50 0 71 12 202 123 l60 51
-60 -62 c-65 -68 -63 -58 -49 -194 l6 -57 -135 0 c-232 -1 -350 -42 -457 -158
-73 -80 -238 -220 -303 -257 -23 -13 -62 -35 -87 -48 -148 -78 -290 -182 -448
-329 -102 -95 -179 -139 -241 -139 -38 0 -41 2 -41 28 -1 102 -96 225 -226
290 -89 45 -334 348 -334 413 0 6 20 38 44 70 163 217 113 514 -113 671 -67
47 -164 78 -246 78 -234 0 -416 -151 -474 -393 -19 -82 -14 -149 19 -232 82
-210 243 -325 455 -325 l71 0 13 -37 c94 -277 215 -495 462 -833 27 -38 50
-82 54 -105 26 -141 111 -205 255 -191 93 8 154 33 256 103 105 72 227 137
342 184 95 38 102 36 102 -42 0 -154 125 -315 311 -401 l66 -31 -1 -186 c-1
-220 8 -257 84 -371 75 -111 95 -185 95 -345 -1 -83 -7 -158 -18 -209 -20 -94
-13 -133 36 -198 55 -72 52 -76 -11 -14 l-60 58 -30 -128 c-50 -213 -51 -186
7 -257 59 -73 162 -162 281 -243 114 -77 120 -85 25 -34 -95 51 -201 121 -308
203 -42 33 -80 58 -82 55 -3 -3 -64 -209 -135 -459 -72 -250 -138 -479 -148
-510 -16 -47 -17 -61 -6 -81 26 -50 47 -53 323 -52 1736 9 2300 15 2426 23 83
5 269 15 415 20 146 6 290 15 321 21 30 5 86 11 125 12 43 1 54 3 31 5 -31 3
-38 8 -34 21 3 9 17 57 31 107 15 49 33 130 41 180 18 108 39 436 33 517 -6
80 7 63 22 -29 23 -140 12 -445 -26 -735 l-7 -48 677 0 676 0 0 25 c0 13 -6
73 -14 132 -8 59 -19 155 -25 213 -6 58 -16 148 -22 200 -5 52 -14 129 -19
170 -6 41 -10 157 -10 257 0 100 -5 217 -10 260 -6 43 -15 114 -21 158 -18
140 -53 300 -96 445 -39 129 -83 243 -158 405 -80 175 -114 339 -131 622 -9
163 -3 185 60 230 103 75 160 158 228 333 6 14 16 39 24 55 8 17 18 44 23 60
9 30 9 29 10 -10 3 -259 12 -325 57 -437 64 -157 169 -294 337 -443 112 -99
143 -114 212 -101 44 9 86 44 119 100 36 62 90 99 191 132 208 66 398 211 526
400 37 56 53 72 67 67 9 -3 44 -16 77 -28 33 -13 101 -29 151 -36 176 -24 376
31 529 146 93 71 129 119 161 219 89 283 30 604 -153 831 -160 197 -471 283
-722 199 -131 -44 -185 -79 -253 -163 -191 -237 -234 -552 -111 -829 13 -30
20 -58 16 -62 -4 -4 -64 -22 -133 -39 -145 -36 -298 -84 -330 -103 -12 -7 -35
-35 -52 -63 -16 -27 -27 -42 -24 -32 60 184 70 382 27 519 -28 89 -107 205
-182 267 -34 28 -57 51 -52 51 4 0 36 -9 71 -19 l62 -19 0 111 c0 253 -65 424
-219 577 -73 73 -102 94 -191 138 -111 54 -238 95 -331 107 -50 6 -61 4 -95
-19 -22 -14 -60 -31 -86 -38 -59 -15 -120 -1 -188 42 -25 15 -65 34 -90 41
-59 16 -199 14 -275 -5 -33 -8 -61 -13 -63 -11 -9 9 115 58 171 68 76 13 158
-2 267 -48 115 -49 194 -32 225 49 12 31 30 53 56 70 43 29 64 62 74 120 8 38
8 38 44 31 81 -16 93 -13 108 30 17 48 11 107 -18 175 -29 68 -21 104 37 160
84 82 98 112 100 215 1 94 11 127 44 145 37 20 62 86 59 154 -2 46 2 71 18
101 11 22 24 56 28 75 l8 35 -42 -38 c-22 -20 -45 -37 -50 -37 -6 0 0 21 11
47 19 42 20 54 10 101 -11 51 -44 112 -62 112 -5 0 0 -21 10 -46 26 -59 26
-100 1 -114 -32 -17 -37 -13 -77 57 -80 138 -215 246 -373 300 -95 32 -243 40
-341 18z m-492 -2368 c64 -129 65 -271 3 -403 l-30 -64 56 -56 c65 -66 163
-131 251 -168 186 -78 424 -80 601 -4 24 10 46 17 48 15 7 -8 -151 -85 -207
-101 -250 -75 -530 -5 -712 177 l-63 63 -63 -52 c-132 -109 -266 -158 -432
-158 -185 0 -338 62 -466 189 -99 97 -116 137 -21 49 196 -184 414 -221 635
-110 83 42 262 176 302 227 94 118 119 302 60 436 -30 68 1 35 38 -40z m2608
-109 c-114 -130 -160 -318 -121 -487 44 -185 170 -327 352 -398 60 -24 83 -27
190 -27 114 -1 120 -2 85 -14 -55 -20 -192 -27 -264 -13 -201 39 -376 206
-423 402 -45 192 9 384 146 521 38 37 71 68 74 68 4 0 -14 -23 -39 -52z m368
-394 c37 -37 35 -86 -3 -125 -39 -39 -63 -39 -49 -1 23 62 -35 117 -97 92 -16
-6 -44 -16 -62 -21 -17 -5 -44 -24 -58 -41 -27 -32 -27 -32 -9 -119 7 -31 -20
-89 -41 -89 -26 0 -83 60 -100 105 l-17 43 28 36 c69 87 193 145 310 145 64 1
74 -2 98 -25z m-4044 -670 c23 -89 26 -180 13 -479 -4 -115 -6 -270 -3 -344
l5 -133 45 -40 c25 -21 81 -56 125 -78 76 -37 202 -76 212 -67 2 3 -1 25 -8
48 -15 50 -16 239 -2 284 8 24 11 9 16 -80 6 -112 38 -260 60 -281 16 -16 170
-51 287 -65 103 -12 296 -7 395 11 140 26 256 63 272 86 23 36 63 159 89 274
l24 105 -4 -125 c-3 -86 -11 -146 -24 -192 -12 -38 -19 -68 -18 -68 2 0 29 9
61 20 77 26 197 91 263 143 44 33 55 38 63 26 16 -25 5 -43 -51 -81 -133 -91
-354 -184 -540 -227 -422 -98 -904 -9 -1260 231 l-65 44 0 360 0 359 -32 72
c-27 61 -74 148 -132 243 -25 42 46 -30 109 -109 30 -39 59 -70 63 -70 4 -1 5
54 2 122 -7 138 2 140 35 11z m1979 -1180 c12 -15 21 -31 21 -35 0 -12 -209
-116 -371 -184 -148 -63 -405 -150 -546 -186 -86 -22 -96 -22 -185 -10 -217
30 -492 96 -658 158 -115 42 -315 144 -361 183 -28 23 -32 32 -23 46 19 32 42
40 66 24 245 -156 586 -268 963 -314 l110 -13 166 48 c281 82 522 173 704 267
44 22 83 41 87 42 4 0 16 -12 27 -26z m-2557 -645 c-46 -33 -104 -108 -127
-162 -58 -139 -30 -308 72 -426 34 -40 35 -43 12 -36 -81 24 -155 93 -198 185
-22 46 -26 68 -25 140 1 92 12 127 63 197 49 67 156 130 225 132 15 1 8 -7
-22 -30z m402 -320 c50 -39 27 -130 -36 -143 -120 -24 -153 -28 -191 -22 -50
8 -130 54 -146 85 -10 18 -8 18 31 -4 82 -47 228 -27 228 31 0 29 41 74 68 74
11 0 31 -9 46 -21z m-1494 -935 c-21 -42 -49 -109 -62 -150 l-23 -74 -37 0
c-21 0 -38 3 -38 7 0 8 189 293 194 293 2 0 -13 -34 -34 -76z"/>
<path d="M9102 5721 c-35 -10 -96 -35 -137 -55 -85 -42 -215 -135 -215 -153 0
-9 19 -13 64 -13 132 0 308 -55 426 -132 78 -52 143 -135 205 -263 99 -204
128 -451 81 -697 -15 -81 -15 -81 80 -34 226 114 376 343 391 598 6 92 -8 190
-36 263 -25 65 -86 177 -115 212 -84 97 -250 211 -376 258 -100 37 -271 45
-368 16z"/>
<path d="M3503 2680 c-121 -54 -254 -179 -317 -300 -53 -101 -76 -201 -76
-335 0 -167 40 -299 131 -432 105 -152 311 -273 496 -290 l65 -6 -72 89 c-83
103 -160 251 -191 369 -48 182 -34 422 35 592 l33 82 -20 125 c-12 72 -25 126
-31 125 -6 0 -30 -9 -53 -19z"/>
</g>
</svg>
