<?xml version="1.0" standalone="no"?>
<!DOCTYPE svg PUBLIC "-//W3C//DTD SVG 20010904//EN"
 "http://www.w3.org/TR/2001/REC-SVG-20010904/DTD/svg10.dtd">
<svg version="1.0" xmlns="http://www.w3.org/2000/svg"
 width="823.000000pt" height="823.000000pt" viewBox="0 0 823.000000 823.000000"
 preserveAspectRatio="xMidYMid meet">

<g transform="translate(0.000000,823.000000) scale(0.100000,-0.100000)"
fill="#000000" stroke="none">
<path d="M4758 8193 c-101 -113 -267 -356 -323 -475 -59 -124 -68 -202 -62
-508 6 -251 27 -484 46 -503 13 -13 297 11 389 33 45 11 126 36 180 56 103 38
380 173 499 242 139 82 374 267 399 314 19 36 67 83 108 105 40 21 96 18 145
-6 22 -12 47 -21 55 -21 29 0 251 177 283 227 15 22 13 28 -29 116 -63 128
-174 292 -259 381 l-72 76 -662 0 -663 0 -34 -37z"/>
<path d="M6425 7580 c-4 -6 -53 -47 -111 -91 l-104 -80 42 -52 c60 -76 79
-125 85 -225 11 -189 -60 -362 -149 -362 -25 0 -32 7 -50 48 -12 26 -24 52
-26 57 -4 12 36 -34 61 -69 10 -14 22 -26 27 -26 36 0 104 134 121 238 21 129
-14 253 -96 341 -87 93 -178 116 -251 62 -50 -36 -70 -66 -94 -144 -26 -83
-25 -113 6 -155 22 -28 23 -32 7 -24 -11 6 -28 29 -38 52 -16 35 -17 48 -8 83
7 23 10 43 9 44 -2 2 -72 -49 -156 -113 -85 -63 -162 -120 -172 -125 -21 -12
-41 -48 -128 -239 -103 -224 -231 -443 -346 -590 -23 -30 -44 -62 -45 -70 -10
-54 38 -264 72 -311 22 -31 79 -54 113 -45 14 3 29 19 36 36 14 34 51 64 91
73 34 9 79 54 79 81 0 12 -7 32 -16 44 -8 12 -10 22 -5 22 6 0 17 -10 26 -23
21 -32 6 -76 -45 -138 -42 -49 -42 -49 -25 -76 37 -56 98 -113 121 -113 12 0
74 15 136 34 62 19 115 33 117 31 2 -2 -9 -34 -25 -70 l-28 -67 31 -24 c18
-13 42 -41 54 -62 61 -103 123 -134 213 -108 114 34 203 114 368 332 116 155
139 191 158 257 14 47 19 55 19 32 1 -42 -38 -122 -116 -234 -235 -340 -398
-454 -566 -394 l-47 17 -61 -59 c-58 -57 -106 -122 -97 -130 2 -2 40 8 83 22
73 24 98 27 280 30 110 3 196 1 192 -4 -5 -4 -86 -8 -180 -9 -171 0 -173 -1
-309 -41 -157 -47 -202 -70 -289 -151 -69 -64 -263 -291 -286 -336 -14 -26
-13 -39 1 -125 21 -127 22 -400 1 -508 -36 -190 -114 -384 -222 -553 -118
-186 -129 -221 -139 -455 l-7 -140 131 -120 c98 -90 156 -135 234 -179 107
-61 138 -83 138 -98 0 -5 -19 4 -42 20 -24 16 -70 43 -104 60 -74 37 -128 80
-269 211 -63 59 -150 128 -205 162 -52 33 -112 74 -132 91 l-37 31 -94 -36
c-128 -49 -203 -60 -360 -55 -106 4 -147 10 -209 30 -73 24 -78 25 -78 8 0
-21 150 -460 205 -600 96 -244 199 -393 375 -545 141 -121 230 -211 325 -328
89 -110 158 -171 275 -241 133 -81 180 -75 337 42 254 189 412 441 528 839 21
70 69 211 107 313 101 271 110 308 115 492 8 227 3 250 -67 357 -32 49 -141
201 -242 337 -280 378 -265 372 29 -11 194 -251 377 -445 475 -503 74 -44 167
-61 243 -45 97 21 289 129 419 237 75 62 112 166 131 369 4 37 11 67 17 67 17
0 -10 -193 -43 -304 -18 -60 -29 -78 -79 -126 -73 -72 -198 -155 -324 -216
-92 -45 -103 -48 -180 -48 -44 0 -93 3 -108 7 -25 6 -28 5 -28 -15 1 -49 38
-107 86 -135 154 -92 202 -149 209 -250 l5 -58 -13 55 c-16 67 -36 107 -74
144 -29 30 -120 86 -139 86 -26 0 53 -377 89 -428 12 -17 52 -63 88 -104 77
-84 119 -144 119 -167 0 -9 -14 5 -30 31 -38 60 -146 175 -156 166 -4 -5 2
-52 14 -105 12 -54 26 -127 32 -163 8 -56 13 -68 42 -90 71 -54 159 -155 187
-214 16 -34 57 -149 91 -256 34 -107 72 -215 85 -240 12 -25 26 -56 30 -70 l7
-25 -17 23 c-25 35 -69 146 -140 361 -40 121 -78 218 -98 247 -43 65 -143 167
-159 162 -8 -3 -16 -31 -20 -69 -49 -444 -53 -510 -38 -611 21 -142 57 -212
122 -237 66 -25 401 -57 793 -76 152 -8 516 9 730 33 l150 17 6 65 c4 36 7
190 8 343 l1 277 -87 0 c-49 0 -119 -5 -158 -10 -38 -5 -90 -11 -115 -14 l-45
-6 42 14 c58 20 255 39 314 31 l50 -7 -3 290 c-2 218 -6 294 -16 304 -19 19
-307 23 -410 5 -84 -14 -95 -10 -32 13 54 20 342 25 408 7 l52 -14 0 553 c0
305 -3 554 -7 554 -5 0 -69 -16 -143 -34 -174 -44 -273 -57 -431 -58 -146 0
-183 9 -255 63 -75 56 -307 329 -292 344 3 3 36 -34 73 -82 95 -121 232 -261
280 -286 89 -46 446 -18 691 54 l72 21 7 442 c8 521 3 2121 -7 2131 -3 4 -33
-11 -65 -32 -90 -61 -214 -133 -381 -222 -262 -139 -421 -248 -580 -396 -46
-43 -85 -75 -88 -73 -7 8 142 146 238 221 107 83 243 167 458 282 189 101 171
90 318 185 l112 72 0 122 0 122 -207 12 c-421 25 -618 71 -786 183 -82 56
-394 368 -493 494 -44 56 -126 171 -184 258 -98 148 -120 171 -135 147z m-294
-203 c50 -33 87 -96 109 -183 23 -88 26 -157 8 -172 -10 -8 -13 8 -14 76 -1
118 -27 185 -96 247 -79 71 -112 62 -162 -45 -34 -74 -24 -84 77 -82 63 2 78
-1 98 -19 20 -18 21 -20 4 -13 -32 12 -129 16 -145 5 -12 -8 -12 -13 -2 -23 6
-6 12 -16 12 -22 0 -14 -38 24 -61 61 -19 31 -20 39 -9 77 7 24 25 60 42 80
24 30 36 36 67 36 23 0 51 -9 72 -23z m53 -138 c21 -25 26 -41 26 -84 0 -85
-60 -225 -95 -225 -8 0 -22 12 -31 28 -9 15 -26 40 -36 55 -11 16 -18 31 -15
33 6 6 35 -32 60 -77 l19 -33 18 24 c27 35 70 155 70 194 0 21 -11 48 -30 74
-35 49 -24 57 14 11z m1631 -3999 c66 -21 279 -120 272 -126 -1 -2 -61 22
-132 52 -226 97 -402 118 -569 68 -12 -4 -16 -2 -12 5 14 23 76 30 221 27 122
-3 163 -8 220 -26z m-656 -34 c-2 -2 -39 -22 -83 -45 -43 -22 -103 -59 -132
-82 -52 -40 -130 -133 -160 -191 -8 -15 -17 -28 -20 -28 -3 0 9 26 26 58 36
68 126 172 183 211 51 34 210 100 186 77z m231 -771 l55 -14 -45 4 c-25 3 -90
10 -145 16 -95 11 -271 7 -360 -7 -22 -4 -37 -3 -33 1 26 27 427 28 528 0z
m60 -559 c76 -17 125 -34 117 -42 -3 -3 -30 2 -59 12 -73 26 -400 27 -465 1
-53 -20 -57 -12 -5 10 101 42 265 50 412 19z"/>
<path d="M5257 6900 c-295 -145 -435 -188 -687 -210 -69 -6 -135 -13 -146 -15
-27 -6 -289 -406 -364 -554 -21 -42 -21 -45 -5 -57 9 -7 94 -32 188 -55 349
-86 518 -62 686 96 80 76 181 205 266 340 82 129 278 537 264 549 -2 2 -93
-41 -202 -94z"/>
<path d="M4074 6016 c20 -17 102 -37 144 -35 20 1 12 6 -30 19 -31 11 -74 22
-95 25 -35 6 -37 5 -19 -9z"/>
<path d="M5611 5711 c-66 -20 -83 -41 -57 -70 23 -25 58 -27 81 -5 24 25 48
75 38 84 -4 4 -32 1 -62 -9z"/>
<path d="M2985 5691 c-289 -48 -596 -297 -745 -605 -197 -406 -182 -853 41
-1186 136 -204 349 -344 554 -364 l60 -6 -65 23 c-275 99 -480 324 -561 612
-30 107 -42 292 -30 438 34 395 264 754 591 921 148 76 172 81 370 81 l175 0
79 -34 c114 -49 214 -120 300 -213 77 -83 106 -88 39 -7 -144 174 -296 284
-450 324 -68 18 -286 28 -358 16z"/>
<path d="M3068 5590 c-310 -56 -602 -318 -737 -660 -63 -159 -76 -235 -76
-445 0 -163 4 -202 23 -278 45 -180 115 -310 231 -430 183 -190 413 -267 665
-222 43 7 83 18 89 24 6 6 2 32 -12 74 -27 80 -71 286 -71 331 0 39 -36 90
-179 256 -91 105 -151 203 -151 246 0 16 49 71 173 192 276 271 291 281 369
246 l41 -18 40 49 c67 82 167 178 250 239 49 36 77 64 77 76 0 10 -26 46 -57
80 -99 107 -244 196 -365 225 -78 19 -247 27 -310 15z"/>
<path d="M4053 5335 c-316 -82 -611 -366 -756 -730 -64 -159 -88 -279 -94
-460 -13 -402 107 -701 367 -908 72 -58 198 -127 230 -127 8 0 -5 12 -30 27
-71 41 -178 132 -228 193 -57 69 -155 269 -183 375 -19 69 -22 108 -23 285 -1
231 6 282 64 462 144 442 472 779 823 845 80 15 274 14 337 -1 14 -4 7 2 -16
13 -120 56 -332 67 -491 26z"/>
<path d="M4270 5293 c-428 -72 -813 -515 -905 -1039 -17 -100 -20 -365 -5
-464 53 -338 283 -618 566 -690 400 -102 875 223 1079 738 138 350 136 749 -4
1037 -133 271 -367 428 -631 423 -41 0 -86 -3 -100 -5z m248 -408 c99 -23 160
-60 247 -149 139 -141 187 -266 187 -491 1 -159 -22 -266 -86 -399 -100 -212
-256 -360 -447 -426 -110 -39 -185 -45 -279 -26 -196 41 -330 161 -418 375
l-36 86 0 175 c1 199 13 265 69 387 47 101 113 192 210 288 159 159 363 225
553 180z"/>
<path d="M4290 4869 c-80 -14 -224 -88 -296 -153 -344 -310 -403 -874 -121
-1160 122 -124 290 -176 458 -143 136 26 236 82 344 191 96 97 136 156 192
286 101 235 94 537 -18 726 -118 200 -322 292 -559 253z"/>
<path d="M3300 4908 c-14 -5 -88 -71 -165 -146 -77 -76 -166 -160 -197 -189
-54 -47 -58 -54 -58 -94 0 -59 36 -119 147 -244 48 -56 100 -115 115 -133 15
-18 29 -32 32 -32 3 0 6 29 6 64 0 75 31 261 60 361 25 87 25 88 -2 79 -17 -5
-13 3 19 42 43 52 103 152 103 173 0 26 -101 -44 -220 -151 -67 -61 -123 -108
-126 -105 -9 8 193 193 257 234 127 83 139 93 139 113 0 11 -6 22 -12 24 -36
11 -76 13 -98 4z"/>
<path d="M5992 3348 c8 -13 46 -77 83 -143 110 -192 193 -306 203 -277 2 7
-15 67 -38 135 -46 134 -57 150 -177 248 -77 63 -94 72 -71 37z"/>
<path d="M6545 1169 c14 -82 26 -94 158 -159 161 -78 732 -269 827 -276 59 -5
78 -1 195 42 186 67 413 142 463 155 l44 10 -4 119 c-2 65 -5 121 -8 123 -3 3
-79 -3 -170 -14 -337 -39 -666 -42 -1105 -9 -156 12 -364 37 -390 47 -15 5
-16 1 -10 -38z"/>
<path d="M6466 1151 c-16 -18 -16 -20 10 -40 32 -25 69 -29 60 -5 -3 9 -6 27
-6 40 0 19 -5 24 -23 24 -13 0 -32 -8 -41 -19z"/>
<path d="M6437 1093 c-4 -3 -7 -65 -8 -137 -1 -199 -6 -221 -67 -297 -86 -106
-160 -285 -237 -570 l-24 -89 1065 0 1064 0 0 460 c0 261 -4 460 -9 460 -23 0
-203 -57 -361 -115 -304 -111 -302 -111 -570 -25 -183 58 -238 77 -450 152
-47 17 -119 47 -160 68 -41 21 -103 48 -138 60 -34 13 -65 27 -68 31 -6 11
-28 12 -37 2z"/>
</g>
</svg>
